<?xml version="1.0" encoding="UTF-8"?>
<svg version="1.1" xmlns="http://www.w3.org/2000/svg" viewBox="0 0 300 300" width="32" height="32">
<path d="M141.63134766 3.12890625 C100.22348251 5.60338507 64.55040387 24.63636246 36.9609375 55.46484375 C32.44490367 60.70703697 28.70618161 66.45972296 25.05029297 72.32080078 C24.1266672 73.79748558 23.1766734 75.25760876 22.22265625 76.71484375 C18.75269939 82.16258772 16.37485322 87.75598923 14.17578125 93.82421875 C13.35960167 96.02871708 12.4666328 98.20569059 11.515625 100.35546875 C5.71854964 114.29534326 3.84973764 129.04088236 3 144 C2.91621094 145.22460938 2.83242188 146.44921875 2.74609375 147.7109375 C1.96019106 169.86832291 7.02534804 193.24199077 17 213 C17.56332031 214.14855469 18.12664063 215.29710937 18.70703125 216.48046875 C30.80042091 240.54732406 49.55630158 260.65535152 72.3046875 274.93359375 C73.7868157 275.8659002 75.25413085 276.82167194 76.71875 277.78125 C82.16620092 281.24780968 87.75780679 283.62580545 93.82421875 285.82421875 C96.03097903 286.64123578 98.21047963 287.53424188 100.36328125 288.484375 C120.16495385 296.73684435 143.43105217 298.68513556 164.625 296.1875 C165.77669678 296.05384033 165.77669678 296.05384033 166.95166016 295.91748047 C183.22366312 293.94157051 198.21187796 290.28690071 213 283 C214.15371094 282.43539063 215.30742187 281.87078125 216.49609375 281.2890625 C251.79761683 263.52442508 277.65852886 232.00665905 290.390625 194.85595703 C302.59455444 157.68677771 297.75508176 117.60497457 281.125 82.8125 C268.59122173 58.46489939 249.04059188 38.43607332 226 24 C225.42765625 23.63487305 224.8553125 23.26974609 224.265625 22.89355469 C200.00291307 7.54512185 170.05953003 1.58179428 141.63134766 3.12890625 Z" fill="#009688" transform="translate(0,0)"/>
<path d="M0 0 C0.33 0 0.66 0 1 0 C1 30.36 1 60.72 1 92 C17.17 92 33.34 92 50 92 C48.52666299 95.68334252 46.99990989 99.12173535 45.22937012 102.65478516 C44.66576279 103.78192932 44.10215546 104.90907349 43.52146912 106.07037354 C42.89911242 107.30995362 42.27672049 108.54951602 41.65429688 109.7890625 C40.99697873 111.10177854 40.33984331 112.41458608 39.68287659 113.72747803 C38.27024417 116.54958663 36.85637207 119.37106938 35.44154358 122.19207764 C33.20390865 126.65380832 30.96933783 131.11706906 28.73522949 135.58056641 C23.58924191 145.86050497 18.43924702 156.13843465 13.28922272 166.41635132 C8.56851853 175.8375757 3.84866162 185.25922197 -0.86795568 194.68249321 C-3.08845957 199.1185214 -5.31091019 203.55356707 -7.5348587 207.98786926 C-8.918321 210.74732922 -10.30012159 213.50761877 -11.68147469 216.26813507 C-12.32172485 217.546765 -12.96266585 218.82504928 -13.60435295 220.10295868 C-14.48121354 221.84944736 -15.3553576 223.59729913 -16.22937012 225.34521484 C-16.71900993 226.32227386 -17.20864975 227.29933289 -17.71312714 228.30599976 C-18.92207234 230.83686256 -19.99213248 233.38344106 -21 236 C-21.33 236 -21.66 236 -22 236 C-22 205.64 -22 175.28 -22 144 C-38.83 144 -55.66 144 -73 144 C-63.89742239 124.65702258 -63.89742239 124.65702258 -60.22265625 117.8515625 C-59.36876625 116.24835363 -58.51611815 114.64448284 -57.66455078 113.04003906 C-57.22927063 112.22007446 -56.79399048 111.40010986 -56.34552002 110.55529785 C-53.98109196 106.06497599 -51.67594134 101.54455615 -49.37109375 97.0234375 C-48.89222717 96.0842749 -48.4133606 95.1451123 -47.91998291 94.17749023 C-46.93262098 92.23973763 -45.9456473 90.30178715 -44.95904541 88.36364746 C-42.33641759 83.21223369 -39.7091141 78.06320537 -37.08203125 72.9140625 C-36.56139099 71.89344727 -36.04075073 70.87283203 -35.5043335 69.82128906 C-30.89517714 60.7886141 -26.26876831 51.76492675 -21.625 42.75 C-21.28045776 42.08087585 -20.93591553 41.41175171 -20.58093262 40.72235107 C-16.12485162 32.07198318 -11.64327594 23.43529862 -7.03955078 14.86230469 C-4.4524207 10.00770837 -2.17824994 5.05067547 0 0 Z " fill="#FBFDFD" transform="translate(164,32)"/>
</svg>
